<?xml version="1.0" encoding="utf-8"?>
<!-- Generator: Adobe Illustrator 24.0.0, SVG Export Plug-In . SVG Version: 6.00 Build 0)  -->
<svg version="1.1" id="Capa_1" xmlns="http://www.w3.org/2000/svg" xmlns:xlink="http://www.w3.org/1999/xlink" x="0px" y="0px"
	 viewBox="0 0 60.7 60.7" style="enable-background:new 0 0 60.7 60.7;" xml:space="preserve">
<style type="text/css">
	.st0{fill:#FFFFFF;}
</style>
<g>
	<path class="st0" d="M57.4,0h-54C1.5,0,0,1.5,0,3.4v54c0,1.9,1.5,3.4,3.4,3.4h29.1V37.2h-7.9V28h7.9v-6.8c0-7.8,4.8-12.1,11.8-12.1
		c3.4,0,6.2,0.3,7.1,0.4v8.2l-4.9,0c-3.8,0-4.5,1.8-4.5,4.5V28H51l-1.2,9.2h-7.9v23.5h15.5c1.9,0,3.4-1.5,3.4-3.4v-54
		C60.7,1.5,59.2,0,57.4,0z"/>
</g>
</svg>
